<svg width="16" height="16" viewBox="0 0 16 16" fill="none" xmlns="http://www.w3.org/2000/svg">
<g clip-path="url(#clip0_515_3966)">
<path d="M2.15506 9.18054C0.966781 9.18054 0 10.1473 0 11.3356V13.8449C0 15.0333 0.966781 16 2.15509 16C3.34341 16 4.31016 15.0333 4.31016 13.8449V11.3356C4.31016 10.1473 3.34337 9.18054 2.15506 9.18054ZM3.06013 13.8449C3.06013 14.344 2.65412 14.75 2.15506 14.75C1.65603 14.75 1.25 14.344 1.25 13.8449V11.3356C1.25 10.8365 1.65603 10.4305 2.15509 10.4305C2.65416 10.4305 3.06016 10.8366 3.06013 11.3356V13.8449Z" fill="#6A7A99"/>
<path d="M7.99981 0C6.8115 0 5.84473 0.966781 5.84473 2.15509V13.8449C5.84473 15.0332 6.8115 16 7.99981 16C9.18812 16 10.1549 15.0332 10.1549 13.8449V2.15509C10.1549 0.966781 9.18812 0 7.99981 0ZM8.9049 13.8449C8.9049 14.344 8.49887 14.75 7.99981 14.75C7.50075 14.75 7.09472 14.344 7.09472 13.8449V2.15509C7.09472 1.656 7.50075 1.25 7.99981 1.25C8.49887 1.25 8.9049 1.656 8.9049 2.15509V13.8449Z" fill="#6A7A99"/>
<path d="M13.8445 4.59021C12.6562 4.59021 11.6895 5.55699 11.6895 6.7453V13.8449C11.6895 15.0332 12.6562 16 13.8445 16C15.0328 16 15.9996 15.0332 15.9996 13.8449V6.7453C15.9996 5.55699 15.0328 4.59021 13.8445 4.59021ZM14.7496 13.8449C14.7496 14.344 14.3436 14.75 13.8445 14.75C13.3455 14.75 12.9395 14.344 12.9395 13.8449V6.7453C12.9395 6.24621 13.3455 5.84021 13.8445 5.84021C14.3436 5.84021 14.7496 6.24621 14.7496 6.7453V13.8449Z" fill="#6A7A99"/>
</g>
<defs>
<clipPath id="clip0_515_3966">
<rect width="16" height="16" fill="white"/>
</clipPath>
</defs>
</svg>
