<svg width="16" height="16" viewBox="0 0 16 16" fill="none" xmlns="http://www.w3.org/2000/svg">
<g clip-path="url(#clip0_515_3957)">
<path d="M8 0C3.58891 0 0 3.58872 0 8C0 12.4113 3.58891 16 8 16C12.4113 16 16 12.4113 16 8C16 3.58872 12.4111 0 8 0ZM8 14.8321C4.23281 14.8321 1.16788 11.7672 1.16788 8C1.16788 4.23281 4.23281 1.16788 8 1.16788C11.7672 1.16788 14.8321 4.23278 14.8321 7.99981C14.8321 11.7672 11.7672 14.8321 8 14.8321Z" fill="#6A7A99"/>
<path d="M10.7246 7.99995H8.19424V4.49629C8.19424 4.17376 7.93284 3.91235 7.6103 3.91235C7.28777 3.91235 7.02637 4.17376 7.02637 4.49629V8.58389C7.02637 8.90642 7.28777 9.16782 7.6103 9.16782H10.7246C11.0472 9.16782 11.3086 8.90642 11.3086 8.58389C11.3086 8.26135 11.0472 7.99995 10.7246 7.99995Z" fill="#6A7A99"/>
</g>
<defs>
<clipPath id="clip0_515_3957">
<rect width="16" height="16" fill="white"/>
</clipPath>
</defs>
</svg>
